<?xml version="1.0" encoding="UTF-8" standalone="no"?>
<svg
   xmlns:dc="http://purl.org/dc/elements/1.1/"
   xmlns:cc="http://creativecommons.org/ns#"
   xmlns:rdf="http://www.w3.org/1999/02/22-rdf-syntax-ns#"
   xmlns:svg="http://www.w3.org/2000/svg"
   xmlns="http://www.w3.org/2000/svg"
   xmlns:sodipodi="http://sodipodi.sourceforge.net/DTD/sodipodi-0.dtd"
   xmlns:inkscape="http://www.inkscape.org/namespaces/inkscape"
   version="1.1"
   width="24"
   height="24"
   viewBox="0 0 24 24"
   id="svg4184"
   inkscape:version="0.91 r13725"
   sodipodi:docname="microg_map_marker_colored.svg">
  <metadata
     id="metadata4192">
    <rdf:RDF>
      <cc:Work
         rdf:about="">
        <dc:format>image/svg+xml</dc:format>
        <dc:type
           rdf:resource="http://purl.org/dc/dcmitype/StillImage" />
        <dc:title></dc:title>
      </cc:Work>
    </rdf:RDF>
  </metadata>
  <defs
     id="defs4190" />
  <sodipodi:namedview
     pagecolor="#ffffff"
     bordercolor="#666666"
     borderopacity="1"
     objecttolerance="10"
     gridtolerance="10"
     guidetolerance="10"
     inkscape:pageopacity="0"
     inkscape:pageshadow="2"
     inkscape:window-width="1920"
     inkscape:window-height="1016"
     id="namedview4188"
     showgrid="false"
     inkscape:zoom="34.166667"
     inkscape:cx="12"
     inkscape:cy="12"
     inkscape:window-x="0"
     inkscape:window-y="27"
     inkscape:window-maximized="1"
     inkscape:current-layer="svg4184" />
  <path
     style="opacity:1;fill:#cddc39;fill-opacity:1;stroke:none;stroke-width:30;stroke-linecap:butt;stroke-miterlimit:4;stroke-dasharray:none;stroke-dashoffset:0;stroke-opacity:1"
     d="M 12 2 A 7 7 0 0 0 5 9 L 9.5 9 A 2.5 2.5 0 0 1 12 6.5 L 12 2 z "
     id="rect4194" />
  <path
     style="opacity:1;fill:#009688;fill-opacity:1;stroke:none;stroke-width:30;stroke-linecap:butt;stroke-miterlimit:4;stroke-dasharray:none;stroke-dashoffset:0;stroke-opacity:1"
     d="M 12 2 L 12 6.5 A 2.5 2.5 0 0 1 14.5 9 L 19 9 A 7 7 0 0 0 12 2 z "
     id="rect4756" />
  <path
     style="opacity:1;fill:#e91e63;fill-opacity:1;stroke:none;stroke-width:30;stroke-linecap:butt;stroke-miterlimit:4;stroke-dasharray:none;stroke-dashoffset:0;stroke-opacity:1"
     d="M 14.5 9 A 2.5 2.5 0 0 1 12 11.5 L 12 22 C 12 22 19 14.25 19 9 L 14.5 9 z "
     id="rect4758" />
  <path
     style="opacity:1;fill:#ff9800;fill-opacity:1;stroke:none;stroke-width:30;stroke-linecap:butt;stroke-miterlimit:4;stroke-dasharray:none;stroke-dashoffset:0;stroke-opacity:1"
     d="M 5 9 C 5 14.25 12 22 12 22 L 12 11.5 A 2.5 2.5 0 0 1 9.5 9 L 5 9 z "
     id="rect4760" />
</svg>
